<?xml version="1.0" standalone="no"?>
<!DOCTYPE svg PUBLIC "-//W3C//DTD SVG 20010904//EN"
 "http://www.w3.org/TR/2001/REC-SVG-20010904/DTD/svg10.dtd">
<svg version="1.0" xmlns="http://www.w3.org/2000/svg"
 width="705.000000pt" height="472.000000pt" viewBox="0 0 705.000000 472.000000"
 preserveAspectRatio="xMidYMid meet">

<g transform="translate(0.000000,472.000000) scale(0.100000,-0.100000)"
fill="#000000" stroke="none">
<path d="M210 4708 c0 -23 39 -174 61 -239 12 -35 41 -104 66 -152 144 -290
323 -439 721 -596 284 -113 420 -215 497 -376 45 -95 59 -174 52 -299 -6 -116
-27 -207 -63 -277 -30 -61 -38 -65 -73 -40 -50 36 -209 83 -297 89 -107 6
-147 -2 -184 -39 -52 -53 -38 -122 39 -192 49 -44 105 -60 191 -55 79 4 172
46 244 109 l47 42 29 -34 c41 -47 79 -129 91 -196 24 -127 -18 -231 -124 -309
-81 -60 -140 -90 -372 -184 -324 -132 -449 -204 -555 -316 -111 -119 -160
-264 -160 -472 0 -186 42 -320 122 -388 48 -40 130 -74 206 -87 37 -6 69 -12
71 -13 2 -2 -7 -46 -20 -98 -12 -53 -21 -98 -18 -100 2 -3 70 11 149 29 209
50 324 66 507 72 176 6 246 0 543 -49 210 -34 377 -41 453 -19 65 19 112 71
102 115 -8 33 -8 47 0 116 20 154 -196 242 -545 225 -138 -7 -222 -19 -475
-70 -183 -37 -312 -51 -333 -37 -10 7 -9 23 2 83 9 41 35 187 60 324 51 286
63 345 75 363 6 10 19 10 66 -2 165 -43 357 -41 675 10 304 48 440 21 501 -98
25 -49 26 -80 6 -183 -21 -103 -21 -296 -2 -501 13 -128 14 -175 4 -242 -17
-121 -4 -163 94 -324 42 -68 65 -88 53 -45 -4 12 -9 35 -13 50 -5 27 -5 27 21
16 45 -21 41 -1 -11 54 -60 63 -76 92 -97 174 -20 77 -20 148 0 365 17 179 14
445 -4 520 -18 68 51 172 143 214 67 32 163 31 366 0 317 -50 506 -53 673 -10
46 12 61 13 67 3 10 -17 42 -176 94 -468 25 -139 48 -264 51 -277 5 -19 1 -24
-21 -30 -34 -8 -178 10 -325 42 -455 98 -785 95 -936 -9 -72 -50 -104 -131
-74 -188 8 -13 7 -31 -1 -57 -22 -74 26 -121 148 -143 71 -14 177 -6 383 27
367 59 531 68 755 39 100 -13 355 -65 443 -91 28 -8 28 5 3 104 -11 39 -17 72
-14 72 2 0 75 -13 161 -29 155 -29 325 -49 452 -54 l65 -2 6 -35 c10 -58 26
-88 74 -139 78 -83 200 -121 328 -101 40 6 142 31 227 56 223 66 341 84 540
84 357 1 563 -74 760 -274 30 -31 59 -56 64 -56 17 0 -115 129 -179 175 -162
116 -323 163 -592 172 -200 7 -336 -12 -587 -84 -260 -74 -361 -80 -469 -26
-74 37 -157 147 -157 209 0 19 7 22 73 27 147 13 257 60 283 123 12 29 12 39
0 68 -30 73 -143 122 -220 96 -69 -22 -138 -133 -148 -236 -4 -38 -5 -39 -43
-42 -87 -7 -519 50 -614 82 l-35 11 -77 310 c-115 458 -107 435 -134 435 -32
0 -114 46 -157 88 -21 19 -40 34 -42 31 -9 -9 20 -99 122 -384 107 -301 155
-445 149 -452 -3 -2 -85 14 -183 36 -859 191 -1100 191 -1308 1 l-56 -52 -11
29 c-11 30 0 84 24 113 26 33 85 69 147 91 61 22 79 23 290 23 238 -1 246 -2
570 -69 69 -15 169 -29 222 -32 84 -5 98 -4 104 10 8 22 -99 628 -132 746 -17
61 2 57 -169 27 -156 -28 -319 -21 -595 25 -146 25 -287 29 -348 11 -50 -15
-120 -75 -148 -127 -10 -19 -21 -35 -25 -35 -4 0 -12 14 -20 31 -57 139 -228
177 -534 118 -207 -40 -435 -49 -580 -23 -141 26 -157 25 -167 -11 -14 -50
-45 -207 -93 -479 -25 -142 -48 -262 -50 -266 -3 -4 2 -13 10 -20 22 -19 172
-7 325 25 322 67 333 68 565 69 201 1 226 -1 291 -21 124 -39 203 -132 175
-206 l-11 -29 -58 53 c-102 93 -233 140 -397 140 -115 0 -226 -16 -445 -67
-346 -79 -635 -131 -650 -117 -4 4 41 140 222 661 33 95 57 176 54 179 -4 4
-23 -10 -44 -29 -41 -40 -128 -88 -161 -88 -15 0 -23 -9 -30 -37 -6 -21 -47
-186 -92 -366 l-82 -328 -46 6 c-81 11 -147 34 -197 68 -110 75 -163 237 -150
452 14 239 101 394 289 519 108 71 185 108 402 196 441 177 536 263 522 474
-5 92 -32 163 -89 237 l-36 46 34 69 c45 91 64 184 64 319 0 188 -44 299 -165
420 -85 85 -155 126 -345 206 -389 162 -516 247 -662 443 -96 129 -171 303
-213 491 -16 69 -25 93 -25 63z m1100 -1929 c81 -23 164 -61 176 -81 11 -17
-66 -82 -141 -119 -116 -57 -243 -47 -317 25 -74 72 -72 151 6 188 52 24 165
19 276 -13z m-100 -1288 c0 -5 -41 -123 -91 -262 -50 -140 -111 -316 -136
-391 l-45 -138 -44 0 c-33 0 -44 4 -44 15 0 20 157 653 169 680 5 12 25 25 52
32 24 6 62 25 84 42 42 31 55 37 55 22z m2819 -26 c29 -19 68 -37 87 -41 23
-4 39 -14 45 -28 11 -27 181 -708 177 -711 -7 -7 -100 20 -103 29 -32 108
-115 351 -181 534 -79 219 -90 252 -80 252 2 0 27 -16 55 -35z m-1422 -360
c-6 -270 -20 -344 -32 -162 -8 130 -1 408 11 447 17 55 26 -58 21 -285z m-414
-241 c97 -22 189 -69 254 -128 52 -47 53 -49 36 -68 -65 -72 -173 -72 -463 1
-259 65 -365 77 -522 61 -118 -12 -349 -55 -478 -89 -41 -11 -76 -18 -78 -16
-2 2 -1 17 2 32 7 29 8 30 104 41 115 13 244 39 482 94 369 86 526 103 663 72z
m1147 1 c168 -21 750 -135 872 -171 15 -4 36 -60 26 -69 -2 -2 -37 5 -78 16
-139 36 -313 70 -444 85 -183 22 -297 10 -570 -60 -273 -70 -385 -69 -449 2
-17 19 -16 21 36 68 139 127 315 165 607 129z m1989 -25 c79 -40 102 -104 56
-154 -35 -38 -96 -63 -199 -81 -134 -23 -130 -24 -123 37 9 69 50 150 95 188
45 37 111 41 171 10z m-3536 -135 c49 -9 132 -27 185 -41 306 -80 427 -84 504
-17 22 20 38 9 38 -27 0 -36 -45 -75 -103 -91 -63 -17 -265 -4 -472 30 -322
53 -457 59 -705 30 -71 -8 -349 -64 -427 -85 -22 -6 -22 -6 -7 53 38 148 29
133 80 133 45 0 46 0 44 -32 -3 -58 -4 -57 53 -42 352 94 615 123 810 89z
m2002 -4 c126 -20 248 -46 378 -79 42 -11 79 -17 82 -12 2 4 0 21 -4 38 -5 17
-7 33 -5 35 3 3 26 -1 52 -7 l47 -12 22 -82 c23 -88 21 -92 -31 -72 -61 23
-383 80 -512 91 -169 14 -317 3 -589 -42 -207 -34 -409 -47 -472 -30 -58 16
-103 55 -103 91 0 36 16 47 38 27 77 -67 195 -63 507 18 230 59 384 69 590 36z
m-1135 -298 c14 -15 31 -32 38 -36 6 -4 12 -13 12 -19 0 -9 -3 -9 -12 0 -17
17 -26 15 -30 -5 -3 -12 -20 12 -46 64 -34 67 -42 92 -41 135 l0 53 27 -82
c15 -45 39 -95 52 -110z"/>
</g>
</svg>
